<?xml version="1.0" encoding="utf-8"?>
<!-- Generator: Adobe Illustrator 19.1.0, SVG Export Plug-In . SVG Version: 6.00 Build 0)  -->
<svg version="1.1" id="Layer_1" xmlns="http://www.w3.org/2000/svg" xmlns:xlink="http://www.w3.org/1999/xlink" x="0px" y="0px"
	 viewBox="0 0 175.3 167" enable-background="new 0 0 175.3 167" xml:space="preserve">
<g id="Favorite">
	<g>
		<path fill="#AA4455" d="M127.9,0c2.5,0,5.1,0.1,7.9,0.4c17.2,1.7,37,17.4,39.5,47.5v10c-2.3,28.8-24,64.4-87.7,109.1
			C24,122.4,2.3,86.8,0,58v-10C2.4,17.8,22.3,2.1,39.5,0.4C42.3,0.1,44.9,0,47.4,0c19.8,0,29.4,8.6,40.3,21.6
			C98.6,8.6,108.1,0,127.9,0 M127.9,19.2c-11.4,0-16.2,3.5-25.6,14.7L87.7,51.4L73,33.9c-9.4-11.2-14.2-14.7-25.6-14.7
			c-1.9,0-3.9,0.1-6.1,0.3c-7.9,0.8-20.3,9.2-22.1,29.3v8.4c2.3,25.2,25.4,54.2,68.5,86.2c43.1-32.1,66.2-61,68.5-86.2v-8.4
			c-1.9-20.1-14.2-28.5-22.1-29.3C131.8,19.3,129.8,19.2,127.9,19.2L127.9,19.2z"/>
	</g>
</g>
</svg>
